<svg width="189" height="39" viewBox="0 0 189 39" fill="none" xmlns="http://www.w3.org/2000/svg">
<path d="M7.28 30.2C6.58667 30.2 5.86667 30.08 5.12 29.84C4.4 29.6 3.69333 29.2533 3 28.8C1.56 27.8667 0.84 26.2933 0.84 24.08V15.04C0.84 13.92 1.02667 12.96 1.4 12.16C1.8 11.36 2.33333 10.7333 3 10.28C3.69333 9.85333 4.4 9.52 5.12 9.28C5.84 9.04 6.54667 8.92 7.24 8.92H13.96C14.6267 8.92 15.32 9.06666 16.04 9.36C16.76 9.65333 17.4267 10.0267 18.04 10.48C18.6533 10.9867 19.1467 11.6533 19.52 12.48C19.8933 13.3067 20.08 14.24 20.08 15.28V32.24C20.08 33.36 19.8933 34.3067 19.52 35.08C19.1733 35.88 18.68 36.5467 18.04 37.08C17.4267 37.5867 16.76 37.9733 16.04 38.24C15.3467 38.5333 14.6533 38.68 13.96 38.68H7.24C5.82667 38.68 4.4 38.2667 2.96 37.44C2.21333 37.0133 1.66667 36.4667 1.32 35.8C1 35.1333 0.84 34.36 0.84 33.48V33C0.84 32.4667 1.01333 32.04 1.36 31.72C1.70667 31.4 2.25333 31.24 3 31.24C4.49333 31.4 5.24 31.9867 5.24 33V33.44C5.24 33.7333 5.44 34.0533 5.84 34.4C6.26667 34.7467 6.97333 34.92 7.96 34.92H12.96C13.9467 34.92 14.64 34.64 15.04 34.08C15.4667 33.52 15.68 32.8933 15.68 32.2V15.32C15.68 14.6533 15.4667 14.0533 15.04 13.52C14.64 12.96 13.9467 12.68 12.96 12.68H7.96C6.97333 12.68 6.26667 12.96 5.84 13.52C5.44 14.0533 5.24 14.6533 5.24 15.32V23.76C5.24 24.4267 5.44 25.0533 5.84 25.64C6.26667 26.2 6.97333 26.48 7.96 26.48H12.12C13.08 26.48 13.56 27.0933 13.56 28.32C13.56 28.88 13.44 29.3333 13.2 29.68C12.9867 30.0267 12.6267 30.2 12.12 30.2H7.28ZM29.9694 31.32C29.9694 32.6 29.236 33.24 27.7694 33.24C26.276 33.24 25.5294 32.6 25.5294 31.32V10.68C25.5294 9.4 26.276 8.76 27.7694 8.76C29.236 8.76 29.9694 9.4 29.9694 10.68V31.32ZM30.8094 3.72C30.8094 4.57333 30.516 5.29333 29.9294 5.88C29.3427 6.46667 28.6227 6.76 27.7694 6.76C26.916 6.76 26.1827 6.46667 25.5694 5.88C24.9827 5.29333 24.6894 4.57333 24.6894 3.72C24.6894 2.84 24.9827 2.10666 25.5694 1.52C26.1827 0.933332 26.916 0.639999 27.7694 0.639999C28.6227 0.639999 29.3427 0.933332 29.9294 1.52C30.516 2.10666 30.8094 2.84 30.8094 3.72ZM41.9675 30.2C41.2742 30.2 40.5542 30.08 39.8075 29.84C39.0875 29.6 38.3808 29.2533 37.6875 28.8C36.2475 27.8667 35.5275 26.2933 35.5275 24.08V15.04C35.5275 13.92 35.7142 12.96 36.0875 12.16C36.4875 11.36 37.0208 10.7333 37.6875 10.28C38.3808 9.85333 39.0875 9.52 39.8075 9.28C40.5275 9.04 41.2342 8.92 41.9275 8.92H48.6475C49.3142 8.92 50.0075 9.06666 50.7275 9.36C51.4475 9.65333 52.1142 10.0267 52.7275 10.48C53.3408 10.9867 53.8342 11.6533 54.2075 12.48C54.5808 13.3067 54.7675 14.24 54.7675 15.28V32.24C54.7675 33.36 54.5808 34.3067 54.2075 35.08C53.8608 35.88 53.3675 36.5467 52.7275 37.08C52.1142 37.5867 51.4475 37.9733 50.7275 38.24C50.0342 38.5333 49.3408 38.68 48.6475 38.68H41.9275C40.5142 38.68 39.0875 38.2667 37.6475 37.44C36.9008 37.0133 36.3542 36.4667 36.0075 35.8C35.6875 35.1333 35.5275 34.36 35.5275 33.48V33C35.5275 32.4667 35.7008 32.04 36.0475 31.72C36.3942 31.4 36.9408 31.24 37.6875 31.24C39.1808 31.4 39.9275 31.9867 39.9275 33V33.44C39.9275 33.7333 40.1275 34.0533 40.5275 34.4C40.9542 34.7467 41.6608 34.92 42.6475 34.92H47.6475C48.6342 34.92 49.3275 34.64 49.7275 34.08C50.1542 33.52 50.3675 32.8933 50.3675 32.2V15.32C50.3675 14.6533 50.1542 14.0533 49.7275 13.52C49.3275 12.96 48.6342 12.68 47.6475 12.68H42.6475C41.6608 12.68 40.9542 12.96 40.5275 13.52C40.1275 14.0533 39.9275 14.6533 39.9275 15.32V23.76C39.9275 24.4267 40.1275 25.0533 40.5275 25.64C40.9542 26.2 41.6608 26.48 42.6475 26.48H46.8075C47.7675 26.48 48.2475 27.0933 48.2475 28.32C48.2475 28.88 48.1275 29.3333 47.8875 29.68C47.6742 30.0267 47.3142 30.2 46.8075 30.2H41.9675ZM84.5291 15.6C84.5291 15.2533 84.4757 14.92 84.3691 14.6C84.2624 14.2533 84.1291 13.9333 83.9691 13.64C83.6224 13 82.9024 12.68 81.8091 12.68H79.2491C78.1557 12.68 77.4224 13 77.0491 13.64C76.7291 14.2533 76.5691 14.9067 76.5691 15.6V31.44C76.5691 32.6933 75.8357 33.32 74.3691 33.32C72.8491 33.32 72.0891 32.6933 72.0891 31.44V15.24C72.0891 13.0533 72.8091 11.4533 74.2491 10.44C75.7157 9.42666 77.1424 8.92 78.5291 8.92H82.5691C83.1824 8.92 83.8624 9.04 84.6091 9.28C85.3557 9.52 86.0757 9.89333 86.7691 10.4C87.4357 9.89333 88.1291 9.52 88.8491 9.28C89.5957 9.04 90.3024 8.92 90.9691 8.92H94.9691C96.3824 8.92 97.7957 9.42666 99.2091 10.44C100.676 11.4267 101.409 13.0267 101.409 15.24V31.44C101.409 32.6933 100.662 33.32 99.1691 33.32C97.6757 33.32 96.9291 32.6933 96.9291 31.44V15.6C96.9291 15.2533 96.8891 14.9067 96.8091 14.56C96.7291 14.2133 96.5824 13.8933 96.3691 13.6L96.4091 13.64C96.1957 13.2933 95.9291 13.0533 95.6091 12.92C95.2891 12.76 94.8224 12.68 94.2091 12.68H91.6891C90.5691 12.68 89.8357 13 89.4891 13.64C89.1424 14.2267 88.9691 14.88 88.9691 15.6V31.44C88.9691 32.6933 88.2357 33.32 86.7691 33.32C85.2757 33.32 84.5291 32.6933 84.5291 31.44V15.6ZM112.31 33C111.483 33 110.696 32.8933 109.95 32.68C109.203 32.44 108.483 32.1067 107.79 31.68V31.72C106.483 30.8933 105.83 29.3733 105.83 27.16V25.2C105.83 24.1067 106.016 23.16 106.39 22.36C106.79 21.5333 107.336 20.88 108.03 20.4H107.99C108.656 19.9467 109.363 19.6133 110.11 19.4C110.856 19.16 111.576 19.04 112.27 19.04H121.11V15.32C121.11 14.6533 120.896 14.0533 120.47 13.52C120.07 12.96 119.376 12.68 118.39 12.68H113.71C112.696 12.68 111.99 12.9333 111.59 13.44C111.216 13.92 111.03 14.4933 111.03 15.16V15.48C111.03 16.8667 110.283 17.56 108.79 17.56C107.296 17.56 106.55 16.8667 106.55 15.48V15.12C106.55 14.0267 106.736 13.1067 107.11 12.36C107.51 11.6133 108.043 10.9867 108.71 10.48H108.67C109.363 10.0267 110.083 9.65333 110.83 9.36C111.603 9.06666 112.336 8.92 113.03 8.92H119.11C119.776 8.92 120.483 9.06666 121.23 9.36C122.003 9.65333 122.723 10.0267 123.39 10.48H123.35C124.043 10.9867 124.576 11.6533 124.95 12.48C125.323 13.28 125.51 14.2133 125.51 15.28V31.32C125.51 32.6 124.776 33.24 123.31 33.24C123.016 33.24 122.736 33.2267 122.47 33.2C122.23 33.1733 122.003 33.1067 121.79 33C121.603 32.8667 121.443 32.6933 121.31 32.48C121.203 32.24 121.15 31.9333 121.15 31.56L121.11 22.8H113.03C112.443 22.8 111.99 22.8667 111.67 23C111.35 23.1333 111.096 23.3467 110.91 23.64C110.696 24.0933 110.536 24.4533 110.43 24.72C110.35 24.96 110.31 25.24 110.31 25.56V27.12C110.31 27.8133 110.51 28.3467 110.91 28.72C111.336 29.0667 112.056 29.24 113.07 29.24H117.55C118.536 29.24 119.03 29.8667 119.03 31.12C119.03 31.6533 118.91 32.1067 118.67 32.48C118.43 32.8267 118.056 33 117.55 33H112.31ZM135.084 26.32V31.4C135.084 32.6533 134.35 33.28 132.884 33.28C131.417 33.28 130.684 32.6533 130.684 31.4V2.92C130.684 1.64 131.417 1 132.884 1C134.35 1 135.084 1.64 135.084 2.92V19.88C135.75 19.08 136.484 18.2267 137.284 17.32C138.11 16.3867 138.924 15.4533 139.724 14.52C140.55 13.56 141.364 12.6267 142.164 11.72C142.964 10.7867 143.71 9.92 144.404 9.12V9.16C144.884 8.6 145.364 8.32 145.844 8.32C146.11 8.32 146.364 8.38666 146.604 8.52C146.87 8.62666 147.15 8.78667 147.444 9H147.404C148.044 9.53333 148.364 10.0667 148.364 10.6C148.364 10.7867 148.324 11 148.244 11.24C148.164 11.4533 148.03 11.64 147.844 11.8L135.084 26.32ZM148.444 30.32C148.63 30.6667 148.724 31.0267 148.724 31.4C148.724 32.0933 148.324 32.6133 147.524 32.96C146.99 33.28 146.51 33.44 146.084 33.44C145.79 33.44 145.51 33.3333 145.244 33.12C144.977 32.9333 144.764 32.6933 144.604 32.4L140.604 24.68C140.364 24.28 140.244 23.88 140.244 23.48C140.244 22.8133 140.59 22.2533 141.284 21.8C141.47 21.6667 141.657 21.5467 141.844 21.44C142.057 21.3333 142.284 21.2533 142.524 21.2C142.817 21.1467 143.097 21.2 143.364 21.36C143.63 21.52 143.857 21.7333 144.044 22L148.444 30.32ZM156.412 26.6C156.412 27.24 156.612 27.84 157.012 28.4C157.439 28.96 158.145 29.24 159.132 29.24H164.132C165.119 29.24 165.812 29 166.212 28.52C166.639 28.0133 166.852 27.44 166.852 26.8V26.36C166.852 25.1067 167.585 24.48 169.052 24.48C170.519 24.48 171.252 25.1067 171.252 26.36V26.84C171.252 27.96 171.065 28.88 170.692 29.6C170.345 30.32 169.812 30.9467 169.092 31.48C167.679 32.4933 166.265 33 164.852 33H158.132C156.719 33 155.345 32.4933 154.012 31.48C153.372 30.9467 152.879 30.28 152.532 29.48C152.185 28.6533 152.012 27.7067 152.012 26.64V15.24C152.012 13.08 152.679 11.48 154.012 10.44C154.679 9.96 155.359 9.58667 156.052 9.32C156.772 9.02667 157.465 8.88 158.132 8.88H164.852C165.492 8.88 166.199 9.01333 166.972 9.28C167.745 9.52 168.465 9.85333 169.132 10.28C169.772 10.7333 170.279 11.36 170.652 12.16C171.052 12.96 171.252 13.9067 171.252 15V20.4C171.252 21.0133 171.065 21.56 170.692 22.04C170.345 22.52 169.692 22.76 168.732 22.76H160.092C159.132 22.76 158.625 22.1333 158.572 20.88C158.572 19.6267 159.079 19 160.092 19H166.892L166.852 15.28C166.852 14.6133 166.639 14.0133 166.212 13.48C165.812 12.92 165.119 12.64 164.132 12.64H159.132C158.145 12.64 157.439 12.92 157.012 13.48C156.612 14.0133 156.412 14.6133 156.412 15.28V26.6ZM180.668 31.32C180.668 32.6 179.934 33.24 178.468 33.24C176.948 33.24 176.188 32.6 176.188 31.32V14.76C176.188 12.5733 176.841 11.0533 178.148 10.2C179.454 9.34666 180.961 8.92 182.668 8.92H187.228C188.214 8.92 188.708 9.54667 188.708 10.8C188.761 12.0533 188.268 12.68 187.228 12.68H182.988C182.028 12.68 181.401 12.8667 181.108 13.24C180.814 13.6133 180.668 14.1333 180.668 14.8V31.32Z" fill="#1B9AAA"/>
</svg>
